<svg xmlns="http://www.w3.org/2000/svg" width="55" height="55"><g fill="none" fill-rule="evenodd"><path stroke="#FFF" stroke-width="1.25" d="M8.474 1A7.514 7.514 0 0 0 .96 8.514v37.972A7.514 7.514 0 0 0 8.474 54h37.972a7.514 7.514 0 0 0 7.514-7.514V8.514A7.514 7.514 0 0 0 46.446 1H8.474Z"/><path fill="#FFF" fill-rule="nonzero" d="M29.127 22.755h4.235l-.53 4.236h-3.705v12.705h-5.493V26.991h-2.978v-4.236h2.978V19.91c0-1.853.464-3.254 1.39-4.202.927-.949 2.47-1.423 4.632-1.423h3.706v4.235h-2.25c-.838 0-1.378.132-1.621.397-.243.265-.364.706-.364 1.324v2.514Z"/></g></svg>