<svg xmlns="http://www.w3.org/2000/svg" width="55" height="55"><g fill="none" fill-rule="evenodd"><path stroke="#FFF" stroke-width="1.25" d="M8.514 1A7.514 7.514 0 0 0 1 8.514v37.972A7.514 7.514 0 0 0 8.514 54h37.972A7.514 7.514 0 0 0 54 46.486V8.514A7.514 7.514 0 0 0 46.486 1H8.514Z"/><path fill="#FFF" fill-rule="nonzero" d="M34.308 13.226H21.14a7.812 7.812 0 0 0-3.092.618 8.042 8.042 0 0 0-2.504 1.7 7.945 7.945 0 0 0-1.7 2.535 7.591 7.591 0 0 0-.618 3.06v13.2c0 1.072.206 2.092.618 3.06a7.766 7.766 0 0 0 1.7 2.52 8.177 8.177 0 0 0 2.504 1.685c.969.433 2 .649 3.092.649h13.168a7.492 7.492 0 0 0 3.092-.65 8.177 8.177 0 0 0 2.504-1.684 7.766 7.766 0 0 0 1.7-2.52 7.735 7.735 0 0 0 .618-3.06v-13.2a7.591 7.591 0 0 0-.618-3.06 7.945 7.945 0 0 0-1.7-2.535 8.042 8.042 0 0 0-2.504-1.7 7.812 7.812 0 0 0-3.092-.618Zm5.286 21.113c0 1.443-.515 2.68-1.545 3.71-1.03 1.03-2.277 1.545-3.74 1.545h-13.17c-1.463 0-2.71-.515-3.74-1.545-1.03-1.03-1.546-2.267-1.546-3.71v-13.2c0-1.442.516-2.684 1.546-3.724 1.03-1.041 2.277-1.562 3.74-1.562h13.17c1.463 0 2.71.52 3.74 1.562 1.03 1.04 1.545 2.282 1.545 3.725v13.2Zm-10.819-13.2a5.357 5.357 0 0 0-1.978 0 6.03 6.03 0 0 0-2.443.897 6.777 6.777 0 0 0-1.854 1.731 6.884 6.884 0 0 0-1.082 2.288 6.47 6.47 0 0 0 .71 5.023 6.694 6.694 0 0 0 1.763 1.932 9.552 9.552 0 0 0 1.885.958 5.85 5.85 0 0 0 2.072.371c.144 0 .304-.005.479-.015a.887.887 0 0 0 .448-.14 6.412 6.412 0 0 0 2.427-.865 6.694 6.694 0 0 0 1.932-1.762c.535-.721.901-1.5 1.097-2.334a6.43 6.43 0 0 0 .077-2.55 6.204 6.204 0 0 0-1.808-3.694c-1.02-1.02-2.262-1.633-3.725-1.84Zm2.257 8.842c-.33.391-.722.736-1.175 1.035a3.36 3.36 0 0 1-1.484.541c-1.05.124-2.025-.129-2.921-.757-.897-.629-1.417-1.479-1.561-2.55-.186-1.052.056-2.025.726-2.922.67-.896 1.53-1.417 2.581-1.56H28.25a3.94 3.94 0 0 1 2.195 1.112c.598.598.969 1.33 1.113 2.195.124.536.129 1.056.016 1.56a4.232 4.232 0 0 1-.541 1.346Zm3.029-10.418a1.112 1.112 0 0 0-.31.402c-.06.144-.092.32-.092.525 0 .186.031.35.093.495.062.144.165.288.309.433.124.123.273.216.448.278.175.062.335.093.48.093.185 0 .35-.031.494-.093.144-.062.289-.155.433-.278.123-.145.216-.304.278-.48.062-.175.093-.324.093-.448 0-.206-.031-.38-.093-.525a1.284 1.284 0 0 0-.278-.402c-.268-.268-.577-.402-.928-.402-.35 0-.659.134-.927.402Z"/></g></svg>