<svg xmlns="http://www.w3.org/2000/svg" width="55" height="55"><g fill="none" fill-rule="evenodd"><path stroke="#FFF" stroke-width="1.25" d="M8.514 1A7.514 7.514 0 0 0 1 8.514v37.972A7.514 7.514 0 0 0 8.514 54h37.972A7.514 7.514 0 0 0 54 46.486V8.514A7.514 7.514 0 0 0 46.486 1H8.514Z"/><path fill="#FFF" fill-rule="nonzero" d="M39.19 36.974h-5.052v-8.509c0-.67-.305-1.24-.915-1.713-.611-.473-1.251-.71-1.92-.71-.67 0-1.202.237-1.596.71-.394.473-.59 1.044-.59 1.713v8.509h-5.053V21.848h5.052v2.54c.414-.689 1.073-1.23 1.98-1.624.905-.394 1.713-.591 2.422-.591 1.576 0 2.915.556 4.018 1.669 1.103 1.113 1.654 2.447 1.654 4.003v9.129Zm-17.637 0h-5.052V21.848h5.052v15.126Zm-2.54-22.69c.708 0 1.31.247 1.801.74.493.492.739 1.092.739 1.801 0 .69-.246 1.28-.739 1.773a2.452 2.452 0 0 1-1.802.739c-.689 0-1.28-.247-1.772-.739a2.417 2.417 0 0 1-.739-1.773c0-.709.246-1.31.739-1.802a2.417 2.417 0 0 1 1.772-.738Z"/></g></svg>