<svg xmlns="http://www.w3.org/2000/svg" width="55" height="55"><g fill="none" fill-rule="evenodd"><path stroke="#FFF" stroke-width="1.25" d="M8.514 1A7.514 7.514 0 0 0 1 8.514v37.972A7.514 7.514 0 0 0 8.514 54h37.972A7.514 7.514 0 0 0 54 46.486V8.514A7.514 7.514 0 0 0 46.486 1H8.514Z"/><path fill="#FFF" fill-rule="nonzero" d="m29.974 25.465 9.679-11.25h-2.294l-8.404 9.769-6.713-9.77H14.5l10.15 14.773L14.5 40.786h2.294l8.875-10.317 7.089 10.317H40.5l-10.527-15.32Zm-3.142 3.652-1.029-1.47L17.62 15.94h3.523l6.604 9.446 1.029 1.472 8.584 12.278h-3.523l-7.005-10.02Z"/></g></svg>