<svg xmlns="http://www.w3.org/2000/svg" width="55" height="55"><g fill="none" fill-rule="evenodd"><path stroke="#FFF" stroke-width="1.25" d="M8.514 1A7.514 7.514 0 0 0 1 8.514v37.972A7.514 7.514 0 0 0 8.514 54h37.972A7.514 7.514 0 0 0 54 46.486V8.514A7.514 7.514 0 0 0 46.486 1H8.514Z"/><path fill="#FFF" fill-rule="nonzero" d="M27.52 15.52c-3.691 0-6.548.122-8.57.366-2.02.244-3.51.767-4.467 1.568-.957.8-1.524 1.962-1.7 3.486-.175 1.523-.263 3.564-.263 6.123s.088 4.6.264 6.123c.175 1.523.742 2.69 1.699 3.501.957.81 2.446 1.333 4.468 1.567 2.021.235 4.878.352 8.569.352 3.691 0 6.548-.117 8.57-.352 2.02-.234 3.51-.756 4.467-1.567.957-.81 1.524-1.978 1.7-3.501.175-1.523.263-3.564.263-6.123s-.088-4.6-.264-6.123c-.175-1.524-.742-2.686-1.699-3.486-.957-.801-2.446-1.324-4.468-1.568-2.021-.244-4.878-.366-8.569-.366Zm4.805 12.041-6.739 3.164c-.293.137-.542.137-.747 0-.205-.137-.307-.371-.307-.703v-5.918c0-.313.102-.537.307-.674.205-.137.454-.137.747 0l6.739 3.135c.293.137.44.303.44.498s-.147.361-.44.498Z"/></g></svg>